HIERARCHY
ROOT newVegas:Hips
{
	OFFSET 0.000000 96.479958 0.000000
	CHANNELS 6 Xposition Yposition Zposition Xrotation Yrotation Zrotation
	JOINT newVegas:Pelvis
	{
		OFFSET 0.000000 0.000000 0.000000
		CHANNELS 3 Xrotation Yrotation Zrotation
		JOINT newVegas:LeftUpLeg
		{
			OFFSET 18.735201 -5.666702 -4.541200
			CHANNELS 3 Xrotation Yrotation Zrotation
			JOINT newVegas:LeftLeg
			{
				OFFSET -0.021200 -31.938179 0.493100
				CHANNELS 3 Xrotation Yrotation Zrotation
				JOINT newVegas:LeftFoot
				{
					OFFSET 0.021200 -31.938179 -4.336299
					CHANNELS 3 Xrotation Yrotation Zrotation
					JOINT newVegas:LeftToeBase
					{
						OFFSET 0.943001 -26.722000 15.023500
						CHANNELS 3 Xrotation Yrotation Zrotation
						End Site
						{
							OFFSET 0.000000 30.670183 0.000000
						}
					}
				}
				JOINT newVegas:Left_PantLeg
				{
					OFFSET 0.663870 -9.044666 -1.108900
					CHANNELS 3 Xrotation Yrotation Zrotation
					End Site
					{
						OFFSET 1.415995 20.635357 0.000000
					}
				}
			}
		}
		JOINT newVegas:RightUpLeg
		{
			OFFSET -18.735201 -5.666702 -4.541200
			CHANNELS 3 Xrotation Yrotation Zrotation
			JOINT newVegas:RightLeg
			{
				OFFSET 0.018946 -31.938133 0.493100
				CHANNELS 3 Xrotation Yrotation Zrotation
				JOINT newVegas:RightFoot
				{
					OFFSET -0.018946 -31.938126 -4.336299
					CHANNELS 3 Xrotation Yrotation Zrotation
					JOINT newVegas:RightToeBase
					{
						OFFSET -0.943001 -26.722004 15.023500
						CHANNELS 3 Xrotation Yrotation Zrotation
						End Site
						{
							OFFSET 0.000000 30.670187 0.000000
						}
					}
				}
				JOINT newVegas:Right_PantLeg
				{
					OFFSET -0.661674 -9.044716 -1.108900
					CHANNELS 3 Xrotation Yrotation Zrotation
					End Site
					{
						OFFSET -1.415958 20.635269 0.000000
					}
				}
			}
		}
	}
	JOINT newVegas:Spine
	{
		OFFSET 0.000000 10.199997 -0.299500
		CHANNELS 3 Xrotation Yrotation Zrotation
		JOINT newVegas:Spine1
		{
			OFFSET 0.000000 11.900002 -1.516600
			CHANNELS 3 Xrotation Yrotation Zrotation
			JOINT newVegas:Spine2
			{
				OFFSET 0.000000 13.600006 -2.842500
				CHANNELS 3 Xrotation Yrotation Zrotation
				JOINT newVegas:Neck
				{
					OFFSET 0.000000 9.624100 -2.890100
					CHANNELS 3 Xrotation Yrotation Zrotation
					JOINT newVegas:Head
					{
						OFFSET 0.000000 14.068802 -1.351900
						CHANNELS 3 Xrotation Yrotation Zrotation
						JOINT newVegas:Hair_Back
						{
							OFFSET 0.000000 3.231903 -17.524799
							CHANNELS 3 Xrotation Yrotation Zrotation
							End Site
							{
								OFFSET 0.000000 19.849884 0.000000
							}
						}
						JOINT newVegas:Hair_Front
						{
							OFFSET 0.000000 31.260406 4.573800
							CHANNELS 3 Xrotation Yrotation Zrotation
							JOINT newVegas:Hair_Front1
							{
								OFFSET 0.000000 2.284103 11.993300
								CHANNELS 3 Xrotation Yrotation Zrotation
								JOINT newVegas:Hair_Front2
								{
									OFFSET 0.000000 2.284103 11.993300
									CHANNELS 3 Xrotation Yrotation Zrotation
									End Site
									{
										OFFSET 0.000000 12.208862 0.000000
									}
								}
							}
						}
						JOINT newVegas:Jowel
						{
							OFFSET 0.000000 -7.458206 6.864100
							CHANNELS 3 Xrotation Yrotation Zrotation
							End Site
							{
								OFFSET 0.000000 19.849884 0.000000
							}
						}
					}
				}
				JOINT newVegas:LeftShoulder
				{
					OFFSET 15.263000 10.923401 -0.547700
					CHANNELS 3 Xrotation Yrotation Zrotation
					JOINT newVegas:LeftArm
					{
						OFFSET 25.438599 -2.830597 -13.032500
						CHANNELS 3 Xrotation Yrotation Zrotation
						JOINT newVegas:LeftForeArm
						{
							OFFSET 29.960503 0.000000 0.000000
							CHANNELS 3 Xrotation Yrotation Zrotation
							JOINT newVegas:LeftHand
							{
								OFFSET 27.849251 0.000000 0.000000
								CHANNELS 3 Xrotation Yrotation Zrotation
								JOINT newVegas:LeftHandThumb1
								{
									OFFSET 4.487587 -3.305161 6.305391
									CHANNELS 3 Xrotation Yrotation Zrotation
									JOINT newVegas:LeftHandThumb2
									{
										OFFSET 5.480453 -3.164139 3.164143
										CHANNELS 3 Xrotation Yrotation Zrotation
										JOINT newVegas:LeftHandThumb3
										{
											OFFSET 5.159721 -2.978973 2.978967
											CHANNELS 3 Xrotation Yrotation Zrotation
											End Site
											{
												OFFSET 2.494507 5.926697 1.738678
											}
										}
									}
								}
								JOINT newVegas:LeftHandIndex1
								{
									OFFSET 18.578728 -0.527832 5.208049
									CHANNELS 3 Xrotation Yrotation Zrotation
									JOINT newVegas:LeftHandIndex2
									{
										OFFSET 3.192009 0.000000 0.000000
										CHANNELS 3 Xrotation Yrotation Zrotation
										JOINT newVegas:LeftHandIndex3
										{
											OFFSET 3.835129 0.000000 0.000000
											CHANNELS 3 Xrotation Yrotation Zrotation
											End Site
											{
												OFFSET -0.034599 3.816971 0.371180
											}
										}
									}
								}
								JOINT newVegas:LeftHandMiddle1
								{
									OFFSET 18.476105 0.000000 0.000000
									CHANNELS 3 Xrotation Yrotation Zrotation
									JOINT newVegas:LeftHandMiddle2
									{
										OFFSET 3.324875 0.000000 0.000000
										CHANNELS 3 Xrotation Yrotation Zrotation
										JOINT newVegas:LeftHandMiddle3
										{
											OFFSET 4.596550 0.000000 0.000000
											CHANNELS 3 Xrotation Yrotation Zrotation
											End Site
											{
												OFFSET 0.057701 4.578827 0.399218
											}
										}
									}
								}
								JOINT newVegas:LeftHandRing1
								{
									OFFSET 17.732719 0.121887 -4.201567
									CHANNELS 3 Xrotation Yrotation Zrotation
									JOINT newVegas:LeftHandRing2
									{
										OFFSET 2.733170 0.000000 0.000000
										CHANNELS 3 Xrotation Yrotation Zrotation
										JOINT newVegas:LeftHandRing3
										{
											OFFSET 3.178268 0.000000 0.000000
											CHANNELS 3 Xrotation Yrotation Zrotation
											End Site
											{
												OFFSET 0.119102 3.170624 0.185394
											}
										}
									}
								}
								JOINT newVegas:LeftHandPinky1
								{
									OFFSET 15.989624 -0.606689 -7.535461
									CHANNELS 3 Xrotation Yrotation Zrotation
									JOINT newVegas:LeftHandPinky2
									{
										OFFSET 2.538986 0.000000 0.000000
										CHANNELS 3 Xrotation Yrotation Zrotation
										JOINT newVegas:LeftHandPinky3
										{
											OFFSET 2.593102 0.000000 0.000000
											CHANNELS 3 Xrotation Yrotation Zrotation
											End Site
											{
												OFFSET -0.150902 2.584198 0.152708
											}
										}
									}
								}
							}
							JOINT newVegas:Left_Sleeve
							{
								OFFSET 0.267448 -0.649796 0.577675
								CHANNELS 3 Xrotation Yrotation Zrotation
								End Site
								{
									OFFSET 0.000000 15.991241 0.000000
								}
							}
							JOINT newVegas:Left_CapeC
							{
								OFFSET 15.715958 -8.608795 -6.935905
								CHANNELS 3 Xrotation Yrotation Zrotation
								JOINT newVegas:Left_CapeC1
								{
									OFFSET 0.000000 -8.688499 0.000000
									CHANNELS 3 Xrotation Yrotation Zrotation
									End Site
									{
										OFFSET 0.000000 8.688499 0.000000
									}
								}
							}
						}
						JOINT newVegas:Left_CapeB
						{
							OFFSET 26.118385 -8.608795 -7.079235
							CHANNELS 3 Xrotation Yrotation Zrotation
							JOINT newVegas:Left_CapeB1
							{
								OFFSET 0.000000 -8.688499 0.000000
								CHANNELS 3 Xrotation Yrotation Zrotation
								End Site
								{
									OFFSET 0.000000 8.688499 0.000000
								}
							}
						}
						JOINT newVegas:Left_CapeA
						{
							OFFSET 5.115639 -8.608795 -10.395809
							CHANNELS 3 Xrotation Yrotation Zrotation
							JOINT newVegas:Left_CapeA1
							{
								OFFSET 0.000000 -8.688499 0.000000
								CHANNELS 3 Xrotation Yrotation Zrotation
								End Site
								{
									OFFSET 0.000000 8.688499 0.000000
								}
							}
						}
					}
				}
				JOINT newVegas:RightShoulder
				{
					OFFSET -15.263000 10.923401 -0.547700
					CHANNELS 3 Xrotation Yrotation Zrotation
					JOINT newVegas:RightArm
					{
						OFFSET -25.438599 -2.830597 -13.032500
						CHANNELS 3 Xrotation Yrotation Zrotation
						JOINT newVegas:RightForeArm
						{
							OFFSET -29.960503 0.000000 0.000000
							CHANNELS 3 Xrotation Yrotation Zrotation
							JOINT newVegas:RightHand
							{
								OFFSET -27.849251 0.000000 0.000000
								CHANNELS 3 Xrotation Yrotation Zrotation
								JOINT newVegas:RightHandThumb1
								{
									OFFSET -4.487587 -3.305161 6.305391
									CHANNELS 3 Xrotation Yrotation Zrotation
									JOINT newVegas:RightHandThumb2
									{
										OFFSET -5.480453 -3.164139 3.164143
										CHANNELS 3 Xrotation Yrotation Zrotation
										JOINT newVegas:RightHandThumb3
										{
											OFFSET -5.159721 -2.978973 2.978967
											CHANNELS 3 Xrotation Yrotation Zrotation
											End Site
											{
												OFFSET -2.494507 5.926697 1.738678
											}
										}
									}
								}
								JOINT newVegas:RightHandIndex1
								{
									OFFSET -18.578728 -0.527832 5.208049
									CHANNELS 3 Xrotation Yrotation Zrotation
									JOINT newVegas:RightHandIndex2
									{
										OFFSET -3.192009 0.000000 0.000000
										CHANNELS 3 Xrotation Yrotation Zrotation
										JOINT newVegas:RightHandIndex3
										{
											OFFSET -3.835129 0.000000 0.000000
											CHANNELS 3 Xrotation Yrotation Zrotation
											End Site
											{
												OFFSET 0.034599 3.816971 0.371180
											}
										}
									}
								}
								JOINT newVegas:RightHandMiddle1
								{
									OFFSET -18.476105 0.000000 0.000000
									CHANNELS 3 Xrotation Yrotation Zrotation
									JOINT newVegas:RightHandMiddle2
									{
										OFFSET -3.324875 0.000000 0.000000
										CHANNELS 3 Xrotation Yrotation Zrotation
										JOINT newVegas:RightHandMiddle3
										{
											OFFSET -4.596550 0.000000 0.000000
											CHANNELS 3 Xrotation Yrotation Zrotation
											End Site
											{
												OFFSET -0.057701 4.578827 0.399218
											}
										}
									}
								}
								JOINT newVegas:RightHandRing1
								{
									OFFSET -17.732719 0.121887 -4.201567
									CHANNELS 3 Xrotation Yrotation Zrotation
									JOINT newVegas:RightHandRing2
									{
										OFFSET -2.733170 0.000000 0.000000
										CHANNELS 3 Xrotation Yrotation Zrotation
										JOINT newVegas:RightHandRing3
										{
											OFFSET -3.178268 0.000000 0.000000
											CHANNELS 3 Xrotation Yrotation Zrotation
											End Site
											{
												OFFSET -0.119102 3.170624 0.185394
											}
										}
									}
								}
								JOINT newVegas:RightHandPinky1
								{
									OFFSET -15.989624 -0.606689 -7.535461
									CHANNELS 3 Xrotation Yrotation Zrotation
									JOINT newVegas:RightHandPinky2
									{
										OFFSET -2.538986 0.000000 0.000000
										CHANNELS 3 Xrotation Yrotation Zrotation
										JOINT newVegas:RightHandPinky3
										{
											OFFSET -2.593102 0.000000 0.000000
											CHANNELS 3 Xrotation Yrotation Zrotation
											End Site
											{
												OFFSET 0.150902 2.584198 0.152708
											}
										}
									}
								}
							}
							JOINT newVegas:Right_CapeC
							{
								OFFSET -15.715958 -8.608795 -6.935905
								CHANNELS 3 Xrotation Yrotation Zrotation
								JOINT newVegas:Right_CapeC1
								{
									OFFSET 0.000000 -8.688499 0.000000
									CHANNELS 3 Xrotation Yrotation Zrotation
									End Site
									{
										OFFSET 0.000000 8.688499 0.000000
									}
								}
							}
							JOINT newVegas:Right_Sleeve
							{
								OFFSET -0.267448 -0.649994 0.577675
								CHANNELS 3 Xrotation Yrotation Zrotation
								End Site
								{
									OFFSET 0.000000 15.991302 0.000000
								}
							}
						}
						JOINT newVegas:Right_CapeA
						{
							OFFSET -5.115540 -8.608795 -10.395824
							CHANNELS 3 Xrotation Yrotation Zrotation
							JOINT newVegas:Right_CapeA1
							{
								OFFSET 0.000000 -8.688499 0.000000
								CHANNELS 3 Xrotation Yrotation Zrotation
								End Site
								{
									OFFSET 0.000000 8.688499 0.000000
								}
							}
						}
						JOINT newVegas:Right_CapeB
						{
							OFFSET -26.118187 -8.608795 -7.079266
							CHANNELS 3 Xrotation Yrotation Zrotation
							JOINT newVegas:Right_CapeB1
							{
								OFFSET 0.000000 -8.688499 0.000000
								CHANNELS 3 Xrotation Yrotation Zrotation
								End Site
								{
									OFFSET 0.000000 8.688499 0.000000
								}
							}
						}
					}
				}
				JOINT newVegas:Left_Collar
				{
					OFFSET 18.625099 8.655502 8.828100
					CHANNELS 3 Xrotation Yrotation Zrotation
					JOINT newVegas:Left_Collar1
					{
						OFFSET 14.783401 10.540405 -1.259500
						CHANNELS 3 Xrotation Yrotation Zrotation
						End Site
						{
							OFFSET 0.000000 18.199875 0.000000
						}
					}
				}
				JOINT newVegas:Collar_Back
				{
					OFFSET 0.000000 15.630707 -20.132601
					CHANNELS 3 Xrotation Yrotation Zrotation
					End Site
					{
						OFFSET 0.000000 22.523010 0.000000
					}
				}
				JOINT newVegas:Left_Peck
				{
					OFFSET 17.239599 -5.132599 25.482599
					CHANNELS 3 Xrotation Yrotation Zrotation
					End Site
					{
						OFFSET 0.000000 22.523010 0.000000
					}
				}
				JOINT newVegas:Right_Peck
				{
					OFFSET -17.239599 -5.132202 25.482599
					CHANNELS 3 Xrotation Yrotation Zrotation
					End Site
					{
						OFFSET 0.000000 22.523010 0.000000
					}
				}
				JOINT newVegas:Right_Collar
				{
					OFFSET -18.625099 8.655792 8.828100
					CHANNELS 3 Xrotation Yrotation Zrotation
					JOINT newVegas:Right_Collar1
					{
						OFFSET -14.783401 10.539993 -1.259500
						CHANNELS 3 Xrotation Yrotation Zrotation
						End Site
						{
							OFFSET 0.000000 18.199631 0.000000
						}
					}
				}
			}
		}
		JOINT newVegas:Belly
		{
			OFFSET 0.000000 -6.540398 9.014299
			CHANNELS 3 Xrotation Yrotation Zrotation
			End Site
			{
				OFFSET 0.000000 11.566666 0.000000
			}
		}
	}
	JOINT newVegas:ElvisFacialAnim_Joint
	{
		OFFSET 1.000000 -95.330101 -8.825800
		CHANNELS 3 Xrotation Yrotation Zrotation
		End Site
		{
			OFFSET 0.000000 35.315800 0.000000
		}
	}
}
MOTION
Frames: 4
Frame Time: 0.016667
0.299315 93.813721 2.954377 -0.283750 0.011233 -2.531081 0.000000 0.000000 -0.000000 -20.160261 11.175591 14.422202 28.550862 11.011553 0.703965 -6.787837 3.469147 -9.496779 0.000000 -0.000000 -0.000000 -0.000001 0.000001 -0.000000 -3.755200 -4.152599 2.754754 16.733712 -2.908611 3.688809 -12.554846 0.062337 -3.484831 0.000000 -0.000001 -0.000000 -0.000000 -0.000000 -0.000001 0.562272 -1.403988 0.529373 0.884704 -0.154384 2.637805 0.868038 0.313564 2.550323 0.248788 -0.072961 0.035084 0.248793 -0.072961 0.035083 -0.000000 -0.000000 -0.000000 0.248788 -0.072959 0.035083 0.248863 -0.072964 0.035082 0.000000 -0.000000 0.000000 -0.000000 -0.000000 -0.000000 0.000018 -0.000019 -0.312853 3.284683 -25.851914 -73.291557 2.210820 -20.459243 0.701206 -31.889795 -2.761261 2.775339 15.772766 2.736689 17.226155 -2.095501 31.047779 -7.361432 0.000002 -0.000000 -0.000003 2.369904 3.655776 -8.470912 -2.148821 2.464581 -18.676480 -0.000001 -0.000000 -0.000001 -1.977807 5.701672 -13.647555 0.262678 5.095088 -26.987870 -0.000000 -0.000002 -0.000003 -3.264367 8.554502 -11.754340 4.032610 4.051313 -33.265227 0.000001 -0.000001 0.000004 -6.476548 11.333645 -23.247041 10.714839 2.545211 -34.824703 -0.000001 -0.000001 -0.000004 0.000002 -0.000002 0.000001 0.000002 -0.000002 0.000001 0.000001 -0.000002 0.000001 -0.000002 -0.000001 -0.000001 -0.000002 -0.000000 -0.000003 -0.000002 -0.000001 -0.000001 -0.000001 -0.000001 -0.000002 0.000036 -0.000016 0.312819 5.327961 -3.221401 75.188751 -0.286935 18.990001 0.139595 -7.879835 -10.226556 5.197522 15.779550 -2.730607 -17.214039 -2.090693 -31.045904 7.368372 0.000002 -0.000002 -0.000001 2.372137 -3.655210 8.489148 -2.148905 -2.464950 18.674617 -0.000001 0.000001 -0.000002 -1.976879 -5.701815 13.665531 0.262184 -5.094022 26.988702 -0.000000 0.000000 -0.000001 -3.260098 -8.214668 11.646167 4.031948 -4.048809 33.264766 0.000000 0.000000 0.000004 -6.475833 -11.337712 23.265620 10.714907 -2.543885 34.823747 0.000001 0.000002 -0.000001 -0.000000 -0.000001 -0.000000 -0.000000 -0.000001 -0.000000 -0.000000 -0.000001 -0.000000 -0.000000 0.000000 0.000000 -0.000000 0.000000 0.000001 -0.000000 0.000000 0.000000 -0.000000 -0.000000 0.000001 0.000000 -0.000000 0.000000 0.000000 -0.000000 0.000000 0.000000 -0.000000 0.000000 0.000000 -0.000000 0.000000 0.000000 -0.000000 0.000000 0.000000 -0.000000 0.000000 0.000000 -0.000000 0.000000 -0.000000 -0.000000 0.000000 0.000000 0.000000 -0.000000 
0.213028 93.902206 2.787613 -0.836153 -1.525697 -2.653831 0.000000 0.000000 -0.000000 -19.345427 12.427400 15.007691 28.470937 12.551852 0.851786 -7.054587 2.225006 -10.024422 -0.000000 -0.000002 0.000000 -0.000000 -0.000000 -0.000000 -5.199155 -4.110793 2.482735 18.772324 -2.242909 3.732438 -11.741159 1.456977 -3.200033 -0.000000 0.000000 0.000000 0.000000 0.000000 -0.000002 0.967471 -1.430008 0.560601 0.988844 -0.196637 2.609326 0.973522 0.242327 2.527079 0.159939 -0.046197 0.040711 0.159935 -0.046196 0.040712 -0.000000 -0.000000 -0.000000 0.159939 -0.046198 0.040712 0.160008 -0.046195 0.040712 0.000000 -0.000000 0.000000 -0.000000 -0.000000 0.000000 0.977385 0.015267 -0.358210 4.946910 -23.826270 -70.973220 1.945032 -20.731311 0.649402 -36.056927 -1.976711 -1.857850 15.407472 1.746473 17.954488 -2.095524 31.047783 -7.361434 0.000001 -0.000002 -0.000006 1.840529 3.540806 -7.141727 -2.148893 2.464593 -18.676580 0.000001 -0.000001 -0.000001 -2.530922 5.645456 -12.530519 0.262688 5.095122 -26.987826 -0.000001 -0.000001 0.000000 -4.418417 8.570466 -10.379997 4.032635 4.051330 -33.265190 0.000001 -0.000001 0.000000 -9.388723 12.326877 -21.725722 10.714852 2.545254 -34.824648 0.000000 0.000000 -0.000003 -0.000002 -0.000002 0.000001 -0.000002 -0.000002 0.000001 -0.000003 -0.000002 0.000001 -0.000002 0.000000 -0.000000 -0.000002 0.000000 -0.000000 -0.000002 0.000000 -0.000000 -0.000002 0.000000 -0.000001 0.066990 0.243802 0.207523 5.191605 -0.509941 74.572859 -0.334876 18.540946 0.163071 -8.606973 -11.105641 5.741618 15.705846 -2.715111 -17.123148 -2.084105 -31.018754 7.320467 0.000001 0.000001 -0.000000 2.384401 -3.660987 8.652065 -2.108224 -2.555852 19.242140 0.000001 0.000001 -0.000002 -1.938389 -5.830312 14.312359 0.313804 -5.184771 27.595026 -0.000002 -0.000000 0.000001 -3.089747 -8.298430 13.039127 4.090660 -4.145244 34.052933 -0.000000 0.000000 0.000004 -6.399144 -12.088566 25.657005 10.741961 -2.614770 35.856888 0.000000 0.000000 -0.000005 0.000000 0.000000 0.000001 -0.000000 -0.000001 0.000001 0.000000 0.000000 0.000001 0.000000 0.000001 -0.000001 0.000000 0.000000 -0.000001 0.000000 0.000001 -0.000001 0.000000 -0.000000 -0.000001 0.000000 -0.000000 -0.000000 0.000000 -0.000000 -0.000000 0.000000 -0.000000 -0.000000 0.000000 -0.000000 -0.000000 0.000000 -0.000000 -0.000000 0.000000 -0.000000 -0.000000 0.000000 -0.000000 -0.000000 -0.000000 0.000000 0.000000 0.000000 0.000000 -0.000000 
0.152950 93.994614 2.389531 -1.532896 -3.439323 -2.963817 0.000000 0.000000 0.000000 -19.142548 15.452145 16.430344 28.678858 12.496395 0.888015 -7.502211 0.949267 -10.095188 -0.000000 -0.000000 -0.000000 -0.000001 -0.000000 -0.000000 -8.034732 -4.125205 2.002992 22.666927 -0.957891 3.982303 -10.370082 2.497465 -2.694618 -0.000000 0.000000 -0.000000 0.000001 0.000000 -0.000001 2.035692 -1.511399 0.584642 1.261821 -0.310409 2.528742 1.249909 0.054709 2.460124 0.060723 0.002660 0.052488 0.060723 0.002662 0.052490 0.000000 0.000001 -0.000000 0.060793 0.002669 0.052486 0.060651 0.002659 0.052488 -0.000000 -0.000000 -0.000000 0.000000 0.000001 -0.000000 1.986223 0.122393 -0.120702 8.094358 -24.899079 -68.198537 1.185704 -21.611468 0.480228 -46.872781 -1.105434 -4.618151 14.460940 -0.788074 19.800020 -2.095520 31.047738 -7.361396 0.000000 0.000000 -0.000001 0.457202 3.136089 -3.650722 -2.148839 2.464594 -18.676514 -0.000000 0.000002 -0.000001 -3.994984 5.400560 -9.596933 0.262667 5.095086 -26.987812 0.000001 0.000001 -0.000003 -7.324055 8.382273 -6.964730 4.032606 4.051310 -33.265241 0.000000 -0.000000 -0.000002 -15.986891 14.066132 -18.223896 10.714839 2.545232 -34.824683 0.000001 0.000002 -0.000003 0.000003 -0.000000 -0.000002 0.000003 -0.000000 -0.000002 0.000002 0.000000 -0.000002 0.000001 0.000000 -0.000002 0.000001 0.000000 -0.000002 0.000001 0.000000 -0.000002 -0.000000 0.000001 -0.000002 0.253463 0.912355 -0.080289 3.636566 1.596722 74.135215 -0.350378 17.651422 0.182507 -7.428753 -12.080565 7.196923 15.498696 -2.672587 -16.866935 -2.065289 -30.942383 7.184839 0.000003 -0.000006 0.000000 2.425219 -3.676038 9.111011 -1.989620 -2.809133 20.839807 0.000000 0.000001 -0.000004 -1.823633 -6.185065 16.114518 0.463918 -5.436898 29.301747 0.000000 0.000001 -0.000003 -2.610777 -8.509697 16.860706 4.262504 -4.409917 36.248169 -0.000000 0.000003 -0.000004 -6.022002 -13.997729 32.140855 10.830947 -2.809663 38.689654 0.000002 0.000002 -0.000002 -0.000000 -0.000000 -0.000000 0.000000 -0.000001 0.000000 -0.000000 -0.000001 -0.000000 0.000000 0.000000 -0.000000 0.000000 0.000000 -0.000000 0.000000 0.000000 -0.000000 0.000000 -0.000000 -0.000000 -0.000000 0.000000 0.000000 -0.000000 0.000000 0.000000 -0.000000 0.000000 0.000000 -0.000000 0.000000 0.000000 -0.000000 0.000000 0.000000 -0.000000 0.000000 0.000000 -0.000000 0.000000 0.000000 0.000000 -0.000000 -0.000000 0.000000 0.000000 0.000000 
0.070729 94.037231 1.834546 -2.260157 -6.116185 -3.419662 -0.000000 0.000000 0.000000 -19.458835 19.650350 18.540916 29.250715 10.481319 0.783734 -8.216938 1.029105 -9.782516 -0.000000 0.000002 0.000000 -0.000000 -0.000000 -0.000000 -11.151219 -4.019022 1.075562 26.703762 1.040439 4.290571 -9.708613 3.397893 -1.056384 -0.000000 0.000000 0.000000 -0.000001 0.000001 -0.000002 3.548062 -1.646368 0.596714 1.649032 -0.475934 2.403264 1.641465 -0.210253 2.353476 -0.018483 0.056286 0.066658 -0.018488 0.056285 0.066657 0.000000 -0.000001 -0.000000 -0.018552 0.056288 0.066658 -0.018479 0.056297 0.066657 -0.000000 0.000000 0.000000 0.000000 -0.000001 -0.000000 3.031712 0.333336 0.350523 12.040974 -27.172067 -65.359678 -0.019232 -23.409177 0.139603 -61.652812 0.361617 -5.512471 13.147949 -4.206707 22.246768 -2.095495 31.047786 -7.361513 0.000001 0.000002 0.000001 -1.447967 2.315619 1.244503 -2.148826 2.464604 -18.676509 -0.000000 0.000001 0.000001 -6.062572 4.814489 -5.487605 0.262675 5.095128 -26.987838 0.000000 0.000001 -0.000005 -11.103920 7.652460 -2.608539 4.032589 4.051319 -33.265238 -0.000001 -0.000002 -0.000005 -22.798934 15.170115 -14.593077 10.714851 2.545221 -34.824665 -0.000003 -0.000003 -0.000004 -0.000000 -0.000001 0.000001 -0.000000 -0.000001 0.000001 -0.000001 -0.000000 0.000001 0.000001 -0.000001 -0.000001 0.000001 -0.000001 -0.000001 0.000001 -0.000001 -0.000001 -0.000000 0.000000 -0.000001 0.541579 1.910657 -0.510205 1.015076 3.562546 73.753694 -2.144231 16.565217 0.812421 -3.019895 -13.043810 9.267815 15.179368 -2.609896 -16.470079 -2.035358 -30.824114 6.974192 0.000000 0.000003 0.000001 2.488008 -3.698798 9.820470 -1.794573 -3.192407 23.310877 -0.000000 0.000001 0.000001 -1.627334 -6.716563 18.865549 0.709962 -5.816750 31.942353 -0.000000 -0.000000 0.000001 -1.876410 -8.740759 22.578580 4.547664 -4.801528 39.597021 -0.000000 0.000001 0.000002 -5.077280 -16.447152 41.729030 11.004873 -3.099498 42.922719 0.000001 0.000002 0.000000 -0.000000 -0.000001 -0.000000 -0.000000 -0.000001 -0.000000 -0.000000 -0.000001 -0.000000 0.000000 -0.000001 0.000000 0.000000 -0.000001 0.000000 0.000000 -0.000001 0.000000 0.000000 -0.000001 0.000000 -0.000000 0.000000 -0.000000 -0.000000 0.000000 -0.000000 -0.000000 0.000000 -0.000000 -0.000000 0.000000 -0.000000 -0.000000 0.000000 -0.000000 -0.000000 0.000000 -0.000000 -0.000000 0.000000 -0.000000 -0.000000 -0.000000 -0.000000 -0.000000 0.000000 0.000000 
